PathFileType	4	(X/Y/Z)	C:\Users\°ÂÌØÂü\Desktop\20210112\bx_y_0_1801-Unnamed.trc
DataRate	CameraRate	NumFrames	NumMarkers	Units	OrigDataRate	OrigDataStartFrame	OrigNumFrames
50.00	50.00	       8	0	mm	50.00	532	       708
Frame#	Time	
		

532	10.620	-677.88654	-63.82252	1556.90540	-700.67676	-50.79638	719.67456	-590.32233	-4.10050	801.35724	-637.80731	280.80212	878.64429	-583.98505	216.24208	814.95319	-695.53363	81.81297	577.95490	-691.18726	274.24170	751.32391	-689.57281	142.10095	576.26270	-728.01282	244.65842	578.22662	-672.82617	18.76551	520.76038	-770.50653	253.54771	504.67972	-675.52631	204.19249	533.76129	-722.73126	249.43866	642.75739	-666.01880	-68.29704	161.81238	-710.72174	151.89174	216.74071	-882.58630	296.07928	144.53386	-674.36877	54.60004	157.89542	-602.83984	17.72848	166.56421	-594.63428	222.94542	173.29498	-667.56879	299.21243	159.70847	-630.40594	307.58151	162.25597	-561.05103	262.01749	166.11772	-528.16980	304.08307	146.45369	-684.62378	121.55138	1853.41614	-693.69904	299.95547	1533.35901	-625.00720	-79.56041	158.42982	-517.71033	-72.55061	142.77277	-795.06036	170.89069	184.58112	-770.97614	220.76649	205.25606	-790.03558	98.86530	1061.83728	-767.54364	-3.73646	207.93861	-793.34912	57.73202	175.97710	-769.17200	-33.12934	490.42838	-561.82727	-41.46499	165.32198	-876.00653	-78.66238	141.45602	-674.75031	172.98891	156.48985	-706.29712	-27.77896	615.77539	-720.59094	-24.68183	569.17352				-591.46149	-7.81110	1050.07446	-580.81793	219.87927	1067.45105	-646.77380	-72.21318	865.08606	-715.78210	78.28278	216.19702	
533	10.640	-677.89526	-63.75205	1556.96399	-701.05957	-50.83535	719.54822	-590.52271	-4.10835	801.40076	-638.11182	280.76672	878.63483	-584.30219	216.39288	815.18506	-695.53363	81.81297	577.95490	-691.37805	274.26636	751.23584	-689.93304	142.00862	576.29840	-728.28772	244.30421	577.92920	-673.01074	19.14091	520.94379	-770.85754	253.52773	504.66440	-675.75391	204.09467	533.63165	-722.84369	249.66766	642.73114	-666.01880	-68.29704	161.81238	-710.80457	151.93147	216.80522	-882.61688	296.19727	144.63943	-674.23297	54.47856	157.79366	-602.91156	17.85151	166.56331	-594.44818	222.79301	173.24167	-667.62305	299.23331	159.61464	-630.59863	307.53162	162.46959	-560.91125	261.91193	166.16360	-528.27954	304.45236	146.40370	-684.22882	121.79263	1853.47583	-694.03265	299.82837	1533.28540	-624.86560	-79.60242	158.53294	-517.74292	-72.32996	142.65115	-795.27917	170.93317	184.64484	-770.96381	220.81009	205.29111	-790.23627	98.77106	1061.91809	-767.44098	-3.75309	208.00731	-793.31793	57.66270	175.96089	-769.17200	-33.12934	490.42838	-561.70898	-41.62449	165.20113	-875.60840	-78.80363	141.39221	-674.78870	173.36867	156.23911	-706.43781	-27.89477	615.82489	-720.78638	-24.50331	568.97211				-591.62573	-8.08928	1050.12109	-580.82349	219.72481	1067.53235	-647.29681	-72.09411	865.08417	-715.81506	78.21194	216.38272	
534	10.660	-678.08301	-63.75837	1557.16150	-700.73322	-51.14896	719.92358	-590.92310	-4.04653	801.26111	-638.41394	280.74310	878.46277	-584.52032	216.21725	815.41962	-695.57800	81.51501	577.87000	-691.34894	274.39166	751.22717	-689.93304	142.00862	576.29840	-728.28137	244.48668	578.10175	-672.95410	19.04330	521.04858	-770.74408	253.65747	504.78549	-675.96509	204.18181	533.44000	-723.00690	249.68867	642.75000	-666.02045	-68.25694	161.60960	-710.72174	151.89174	216.74071	-882.56689	296.15085	144.56075	-674.53802	54.49222	157.92044	-602.93073	17.76057	166.48036	-594.51880	222.91530	173.33011	-667.67749	299.30463	159.72942	-630.47565	307.48114	162.30513	-561.02417	262.04694	166.27702	-528.12848	304.26782	146.48064	-684.02319	122.14050	1853.49658	-694.21649	299.95407	1533.61475	-625.20679	-79.52689	158.25372	-517.80286	-72.22469	142.70474	-795.20203	170.88498	184.56491	-771.08490	220.91226	205.23633	-790.32788	98.82858	1061.91638	-767.11902	-3.85649	208.01907	-793.20209	57.53181	176.05042	-769.17200	-33.12934	490.42838	-561.77014	-41.67447	165.16347	-875.79523	-78.72449	141.54755	-674.75818	173.08171	156.63683	-706.57166	-27.68660	615.73492	-720.87476	-24.38546	568.95990	-603.50842	110.86557	1440.19250	-591.88867	-8.00502	1050.18018	-581.02783	219.80960	1067.64734	-647.53815	-72.04012	865.15814	-715.91736	78.39807	216.30994	
535	10.680	-678.12885	-63.85919	1557.10437	-700.80377	-51.16730	720.11987	-591.05212	-4.11297	801.20667	-638.59637	280.82489	878.57825	-584.95508	216.35806	815.25763	-695.57800	81.51501	577.87000	-691.68384	274.42661	751.17914	-690.15851	142.20776	576.22369	-728.46289	244.78455	578.32117	-672.90570	19.04034	520.94098	-771.01569	253.45531	504.44797	-675.86627	204.22220	533.50470	-723.16669	249.71916	642.82568	-666.20166	-68.26285	161.56624	-710.74213	151.82376	216.67838	-882.47620	296.02133	144.58337	-674.40222	54.37075	157.81870	-602.84631	17.79728	166.59796	-594.44818	222.79301	173.24167	-667.58484	299.24329	159.53648	-630.54834	307.57965	162.17331	-560.93030	262.05984	166.01936	-528.03790	304.30890	146.30270	-683.71545	122.25327	1853.48157	-693.99146	300.08740	1533.46899	-624.98413	-79.50716	158.49445	-517.74292	-72.32996	142.65115	-795.34985	171.13524	184.75526	-771.15039	220.83435	205.16466	-790.48962	98.92440	1061.99304	-767.30792	-3.65916	207.68991	-793.34912	57.73202	175.97710	-769.33197	-33.13567	490.31015	-561.70898	-41.62449	165.20113	-875.85034	-78.68372	141.27127	-674.75031	172.98891	156.48985	-706.81848	-27.46132	615.61005	-721.12146	-24.44737	568.89172	-603.68494	110.83353	1439.98584	-591.99255	-8.03384	1050.34717	-581.81757	219.65936	1067.45007	-647.73590	-71.92583	864.98785	-715.75092	77.96558	216.67809	
536	10.700	-678.16797	-63.94016	1557.00146	-701.56995	-51.21524	720.34552	-591.12823	-4.19014	801.24652	-638.87646	281.08752	878.84912	-584.84668	216.21942	815.28998	-695.80182	81.62444	577.96704	-691.75623	274.66040	751.12091	-689.93304	142.00862	576.29840	-728.67694	244.74692	578.44141	-673.04633	19.13525	521.04218	-771.08563	253.46732	504.38495	-676.27283	204.25351	533.38892	-723.41705	249.46530	642.76172	-666.01880	-68.29704	161.81238	-710.72174	151.89174	216.74071	-882.58673	296.07724	144.51712	-674.53802	54.49222	157.92044	-602.89587	17.73040	166.48795	-594.55530	222.87230	173.25008	-667.62952	299.42807	159.68350	-630.55273	307.50052	162.29996	-561.05719	262.08774	166.12070	-527.84924	304.42056	146.26408	-683.61292	122.81287	1853.54639	-694.16144	299.87189	1533.38501	-625.00146	-79.59467	158.39983	-517.80286	-72.22469	142.70474	-795.31683	170.81490	184.68362	-771.04706	220.85947	205.31076	-790.56653	99.01037	1061.79602	-767.46387	-3.72144	207.70033	-793.26709	57.61576	175.98694	-769.44983	-33.17689	490.21863	-561.79596	-41.60534	165.34273	-875.84143	-78.79816	141.14836	-674.75031	172.98891	156.48985	-706.86615	-27.61999	615.61737	-721.44269	-24.15880	568.91992	-603.25970	110.81851	1439.86377	-591.80493	-8.03255	1050.20850	-581.69635	219.84525	1067.66589	-647.75977	-71.86480	865.01501	-715.81506	78.21194	216.38272	
537	10.720	-678.28998	-64.06178	1556.93616	-701.56995	-51.21524	720.34552	-591.19574	-4.14579	801.30682	-639.02881	280.99319	878.76318	-585.09045	216.34100	815.44873	-695.97729	81.49418	577.95740	-692.29700	274.64218	751.41949	-690.23553	142.25464	576.18359	-728.73682	244.75591	578.61414	-673.33313	19.03132	520.95697	-771.32019	253.54936	504.45007	-676.27283	204.25351	533.38892	-723.48108	249.40649	642.64569	-666.07770	-68.35758	161.95337	-710.80457	151.93147	216.80522	-882.57434	296.15549	144.64362	-674.33282	54.58162	158.04417	-603.01715	17.85662	166.61380	-594.63428	222.94542	173.29498	-667.61023	299.41238	159.65062	-630.57324	307.53918	162.30827	-560.98041	261.98141	166.17891	-528.19574	304.52661	146.42821	-683.50623	123.04620	1853.51184	-693.93530	300.01202	1533.37366	-625.07153	-79.80196	158.51543	-517.79987	-72.35938	142.53941	-795.32635	170.99031	184.69003	-771.08606	220.86380	205.32378	-790.58698	98.96037	1061.81628	-767.11902	-3.85649	208.01907	-793.26251	57.59791	175.97743	-769.43396	-33.24205	490.19229	-561.62170	-41.75236	165.32693	-875.79523	-78.72449	141.54755	-674.78870	173.36867	156.23911	-706.98749	-27.59916	615.45068	-721.44269	-24.15880	568.91992	-603.25970	110.81851	1439.86377	-592.22186	-8.06216	1050.38147	-581.81335	219.79845	1067.49915	-648.41296	-71.70374	865.02032	-715.91559	78.28829	216.48166	
538	10.740	-678.33331	-64.30960	1556.94226	-701.86877	-51.24072	720.19452	-591.25549	-4.37386	801.40015	-639.09662	281.07278	878.86182	-585.39484	216.45509	815.17578	-695.80182	81.62444	577.96704	-692.42017	274.92584	751.09998	-690.35492	142.16652	576.03137	-728.88123	244.57481	578.18317	-673.70660	18.99237	520.74109	-771.20483	253.54861	504.34784	-676.40656	204.36682	533.31024	-723.77374	249.39107	642.66321	-666.20959	-68.34941	161.67656	-710.80457	151.93147	216.80522	-882.56842	296.04892	144.50932	-674.36877	54.60004	157.89542	-602.90009	17.78939	166.54056	-594.47314	222.82878	173.28212	-667.58502	299.29373	159.74509	-630.50458	307.48068	162.50517	-561.00616	262.12451	166.18317	-528.11450	304.37653	146.40186	-683.60931	123.37675	1853.50732	-693.84387	299.93829	1533.41711	-624.79340	-79.73300	158.49286	-517.72571	-72.31001	142.84933	-795.26617	171.09875	184.80324	-770.94397	220.86700	205.51968	-791.44427	99.05622	1062.05042	-767.49622	-3.80455	207.79123	-793.26392	57.51945	175.87195	-769.55511	-32.82597	490.18503	-561.62170	-41.75236	165.32693	-876.00024	-78.86822	141.17453	-674.61627	172.66422	157.11414	-706.98749	-27.59916	615.45068	-721.46527	-24.18381	568.93536	-603.52106	110.57649	1439.84143	-592.51215	-8.09708	1050.31287	-581.86749	219.91162	1068.18811	-648.35553	-71.97576	865.19928	-715.81506	78.21194	216.38272	
539	10.760	-678.61420	-64.40549	1556.93616	-702.19678	-51.19202	720.37872	-591.33551	-4.22336	801.40845	-639.18152	281.15182	878.80090	-585.35516	216.56259	815.30737	-695.94617	81.67678	577.81238	-692.65857	274.45718	751.19055	-690.38074	142.01103	576.87598	-728.97687	244.58206	578.30597	-673.67578	19.13741	520.97174	-771.41040	253.45892	504.45941	-676.43323	204.24068	533.42749	-723.76923	249.45062	642.58160	-666.12988	-68.39370	161.69951	-710.72174	151.89174	216.74071	-882.66919	296.18298	144.57330	-674.46869	54.70308	158.14590	-602.94391	17.81442	166.49556	-594.51660	222.93832	173.22243	-667.50183	299.20029	159.61104	-630.59338	307.54678	162.26474	-560.92938	262.01822	166.24138	-528.12280	304.28763	146.42749	-683.43140	123.73649	1853.39246	-693.89722	299.92316	1533.39551	-624.88519	-79.79257	158.32031	-517.66852	-72.36177	142.69025	-795.32672	171.05388	184.80856	-770.97925	220.82237	205.27528	-791.60187	99.23153	1061.80774	-767.54944	-3.90904	207.52699	-793.35498	57.67678	175.89481	-769.49762	-33.00686	490.11880	-561.70898	-41.62449	165.20113	-875.60840	-78.80363	141.39221	-674.78076	173.27586	156.09212	-707.24762	-27.76318	615.58521	-721.50952	-24.20149	568.84558	-603.67804	110.43111	1439.82800	-592.57916	-8.23131	1050.27332	-581.86749	219.91162	1068.18811	-648.48938	-71.81185	865.12482	-715.61780	78.05566	216.48412	
